<svg width="22.000000" height="19.000000" viewBox="0 0 22 19" fill="none" xmlns="http://www.w3.org/2000/svg" xmlns:xlink="http://www.w3.org/1999/xlink">
	<desc>
			Created with Pixso.
	</desc>
	<defs/>
	<path id="Vector" d="M21.99 0.95C21.99 0.77 21.94 0.6 21.85 0.44C21.76 0.29 21.63 0.16 21.48 0.08C21.33 -0.01 21.15 -0.06 20.98 -0.05C20.8 -0.05 20.63 0 20.48 0.09C19.89 0.43 19.26 0.7 18.6 0.88C17.66 0.07 16.47 -0.37 15.23 -0.36C13.87 -0.36 12.57 0.17 11.59 1.11C10.62 2.06 10.05 3.34 10 4.7C7.33 4.27 4.9 2.88 3.19 0.78C3.09 0.65 2.96 0.55 2.81 0.49C2.66 0.43 2.5 0.4 2.33 0.41C2.17 0.42 2.02 0.48 1.88 0.56C1.74 0.65 1.63 0.77 1.55 0.91C1.14 1.63 0.9 2.44 0.86 3.27C0.82 4.1 0.97 4.92 1.31 5.68L1.3 5.68C1.15 5.77 1.03 5.91 0.94 6.06C0.85 6.22 0.81 6.39 0.81 6.57C0.81 6.72 0.82 6.86 0.84 7.01C0.94 8.27 1.5 9.45 2.4 10.32C2.34 10.44 2.3 10.57 2.29 10.7C2.28 10.83 2.3 10.97 2.34 11.09C2.73 12.33 3.58 13.37 4.7 14.01C3.56 14.46 2.33 14.61 1.11 14.46C0.89 14.43 0.66 14.48 0.46 14.6C0.27 14.72 0.12 14.9 0.05 15.11C-0.03 15.33 -0.03 15.56 0.04 15.77C0.11 15.99 0.25 16.17 0.45 16.29C2.54 17.64 4.97 18.36 7.46 18.36C10.27 18.39 13.03 17.49 15.28 15.79C17.53 14.1 19.17 11.71 19.92 8.99C20.27 7.81 20.45 6.58 20.45 5.35C20.45 5.28 20.45 5.21 20.45 5.15C20.98 4.58 21.38 3.92 21.64 3.2C21.91 2.48 22.02 1.71 21.99 0.95ZM18.68 4.16C18.51 4.35 18.43 4.6 18.45 4.86C18.46 5.02 18.45 5.19 18.45 5.35C18.45 6.39 18.3 7.43 18 8.43C17.38 10.74 16.01 12.78 14.1 14.21C12.19 15.65 9.85 16.41 7.46 16.36C6.6 16.36 5.74 16.26 4.9 16.06C5.97 15.71 6.97 15.18 7.85 14.49C8.01 14.36 8.13 14.19 8.19 13.99C8.25 13.79 8.24 13.58 8.18 13.39C8.11 13.19 7.99 13.02 7.82 12.9C7.65 12.78 7.45 12.71 7.25 12.71C6.41 12.69 5.62 12.36 5.03 11.77C5.18 11.74 5.33 11.71 5.48 11.67C5.69 11.6 5.88 11.47 6.01 11.29C6.14 11.11 6.21 10.89 6.2 10.66C6.19 10.44 6.11 10.22 5.96 10.05C5.82 9.88 5.62 9.77 5.4 9.72C4.91 9.63 4.46 9.42 4.07 9.12C3.68 8.82 3.36 8.44 3.15 8C3.33 8.02 3.51 8.04 3.69 8.04C3.91 8.05 4.12 7.98 4.3 7.86C4.47 7.73 4.61 7.55 4.67 7.35C4.74 7.14 4.74 6.92 4.67 6.71C4.59 6.51 4.46 6.33 4.27 6.21C3.83 5.92 3.47 5.52 3.23 5.05C2.98 4.59 2.85 4.07 2.85 3.54C2.85 3.47 2.85 3.4 2.86 3.34C5.1 5.43 8 6.66 11.07 6.82C11.22 6.82 11.37 6.8 11.52 6.73C11.66 6.67 11.78 6.58 11.88 6.46C11.98 6.34 12.05 6.2 12.09 6.05C12.12 5.9 12.12 5.74 12.09 5.59C12.03 5.35 12 5.11 12 4.86C12 4.01 12.34 3.19 12.95 2.58C13.55 1.98 14.37 1.64 15.23 1.64C15.67 1.64 16.1 1.73 16.51 1.9C16.91 2.08 17.27 2.33 17.57 2.66C17.69 2.78 17.83 2.87 17.99 2.93C18.16 2.98 18.33 2.99 18.49 2.95C18.9 2.87 19.31 2.77 19.71 2.63C19.44 3.19 19.09 3.7 18.68 4.16Z" fill="#F5EFDB" fill-opacity="1.000000" fill-rule="nonzero"/>
</svg>

